<?xml version="1.0" standalone="no"?>
<!DOCTYPE svg PUBLIC "-//W3C//DTD SVG 20010904//EN"
 "http://www.w3.org/TR/2001/REC-SVG-20010904/DTD/svg10.dtd">
<svg version="1.0" xmlns="http://www.w3.org/2000/svg"
 width="340.000000pt" height="340.000000pt" viewBox="0 0 340.000000 340.000000"
 preserveAspectRatio="xMidYMid meet">

<g transform="translate(0.000000,340.000000) scale(0.100000,-0.100000)"
fill="#000000" stroke="none">
<path d="M1140 1700 l0 -1110 359 0 c395 0 488 9 589 57 66 31 141 102 171
162 55 106 64 247 24 355 -27 74 -108 156 -201 203 -117 60 -152 67 -300 58
-237 -15 -240 -15 -273 23 -25 28 -28 38 -23 71 7 44 -7 77 -36 86 -24 8 -25
22 -3 47 14 16 14 18 1 18 -34 0 -40 26 -16 75 l23 47 -27 21 c-15 12 -38 30
-52 40 -37 25 -33 41 19 78 74 53 88 85 96 218 9 132 30 204 83 284 34 51 76
97 76 84 0 -3 -7 -32 -15 -64 -40 -152 1 -351 94 -468 78 -96 194 -158 413
-220 312 -88 490 -237 517 -432 l7 -58 18 55 c59 186 9 401 -120 509 -58 48
-167 97 -278 127 -167 43 -259 101 -326 206 -58 88 -73 162 -67 310 4 120 8
134 64 311 5 16 -19 17 -406 17 l-411 0 0 -1110z"/>
</g>
</svg>
