<svg version="1.1" id="Layer_1" xmlns="http://www.w3.org/2000/svg" xmlns:xlink="http://www.w3.org/1999/xlink" x="0px" y="0px"
	 width="100%" viewBox="0 0 340 340" enable-background="new 0 0 340 340" xml:space="preserve">
<path fill="#010101" opacity="1.000000" stroke="none" 
	d="
M165.000000,341.000000 
	C110.000008,341.000000 55.500019,341.000000 1.000022,341.000000 
	C1.000015,227.666702 1.000015,114.333397 1.000007,1.000068 
	C114.333282,1.000045 227.666565,1.000045 340.999878,1.000023 
	C340.999939,114.333260 340.999939,227.666519 340.999969,340.999878 
	C282.500000,341.000000 224.000000,341.000000 165.000000,341.000000 
M183.848267,151.653152 
	C193.774490,158.441391 205.200180,161.455139 216.448151,165.137344 
	C226.015488,168.269363 235.618973,171.910263 244.341660,176.852356 
	C256.291321,183.622772 265.017151,193.563889 267.106323,207.970551 
	C267.198669,208.607361 267.990051,209.142838 268.486664,209.764084 
	C269.362854,207.067657 270.446991,204.635254 270.935577,202.088593 
	C276.026642,175.551941 264.148346,155.410492 238.465332,146.945740 
	C235.944839,146.115036 233.334824,145.550323 230.756119,144.902924 
	C218.783615,141.897217 207.530090,137.590408 199.502121,127.515289 
	C189.242493,114.639435 188.294968,99.677345 190.622269,84.340828 
	C191.831818,76.370178 194.521011,68.624077 196.592743,60.578793 
	C169.444855,60.578793 142.287018,60.578793 115.128593,60.578793 
	C115.128593,134.391251 115.128593,207.790085 115.128593,281.426025 
	C116.739410,281.516876 118.042732,281.652954 119.346230,281.654572 
	C140.669876,281.680817 161.996445,281.890106 183.315460,281.581635 
	C189.740662,281.488708 196.292175,280.530243 202.530289,278.955750 
	C219.194931,274.749634 228.557358,263.300201 231.315247,246.769516 
	C234.071442,230.248962 228.997040,216.645706 214.535950,207.006210 
	C201.770844,198.497284 187.963593,196.185150 173.048187,198.580429 
	C168.629395,199.290039 164.123306,199.907303 159.669296,199.833893 
	C153.913940,199.739014 148.909210,195.723602 149.473267,191.570251 
	C150.234985,185.961304 150.319641,181.141235 143.315048,179.200638 
	C144.670380,177.154022 145.555984,175.816696 146.570816,174.284225 
	C141.618164,173.324539 142.068970,170.679016 144.043533,167.116837 
	C146.972153,161.833527 146.236404,160.168213 141.012131,157.199936 
	C138.993195,156.052826 137.301193,154.330261 135.623611,152.999466 
	C136.147186,151.882614 136.220078,151.520828 136.437408,151.303360 
	C137.022797,150.717606 137.600769,150.076324 138.302765,149.662430 
	C147.694427,144.124924 150.527695,135.774963 150.484650,125.169243 
	C150.457092,118.378242 152.245071,111.312370 154.582138,104.863670 
	C156.462341,99.675575 160.387512,95.228607 163.405319,90.452797 
	C163.970886,90.662270 164.536453,90.871742 165.102020,91.081215 
	C160.227631,114.535980 162.783722,135.672379 183.848267,151.653152 
z"/>
<path fill="#FAFAFA" opacity="1.000000" stroke="none" 
	d="
M183.563324,151.432480 
	C162.783722,135.672379 160.227631,114.535980 165.102020,91.081215 
	C164.536453,90.871742 163.970886,90.662270 163.405319,90.452797 
	C160.387512,95.228607 156.462341,99.675575 154.582138,104.863670 
	C152.245071,111.312370 150.457092,118.378242 150.484650,125.169243 
	C150.527695,135.774963 147.694427,144.124924 138.302765,149.662430 
	C137.600769,150.076324 137.022797,150.717606 136.437408,151.303360 
	C136.220078,151.520828 136.147186,151.882614 135.623611,152.999466 
	C137.301193,154.330261 138.993195,156.052826 141.012131,157.199936 
	C146.236404,160.168213 146.972153,161.833527 144.043533,167.116837 
	C142.068970,170.679016 141.618164,173.324539 146.570816,174.284225 
	C145.555984,175.816696 144.670380,177.154022 143.315048,179.200638 
	C150.319641,181.141235 150.234985,185.961304 149.473267,191.570251 
	C148.909210,195.723602 153.913940,199.739014 159.669296,199.833893 
	C164.123306,199.907303 168.629395,199.290039 173.048187,198.580429 
	C187.963593,196.185150 201.770844,198.497284 214.535950,207.006210 
	C228.997040,216.645706 234.071442,230.248962 231.315247,246.769516 
	C228.557358,263.300201 219.194931,274.749634 202.530289,278.955750 
	C196.292175,280.530243 189.740662,281.488708 183.315460,281.581635 
	C161.996445,281.890106 140.669876,281.680817 119.346230,281.654572 
	C118.042732,281.652954 116.739410,281.516876 115.128593,281.426025 
	C115.128593,207.790085 115.128593,134.391251 115.128593,60.578793 
	C142.287018,60.578793 169.444855,60.578793 196.592743,60.578793 
	C194.521011,68.624077 191.831818,76.370178 190.622269,84.340828 
	C188.294968,99.677345 189.242493,114.639435 199.502121,127.515289 
	C207.530090,137.590408 218.783615,141.897217 230.756119,144.902924 
	C233.334824,145.550323 235.944839,146.115036 238.465332,146.945740 
	C264.148346,155.410492 276.026642,175.551941 270.935577,202.088593 
	C270.446991,204.635254 269.362854,207.067657 268.486664,209.764084 
	C267.990051,209.142838 267.198669,208.607361 267.106323,207.970551 
	C265.017151,193.563889 256.291321,183.622772 244.341660,176.852356 
	C235.618973,171.910263 226.015488,168.269363 216.448151,165.137344 
	C205.200180,161.455139 193.774490,158.441391 183.563324,151.432480 
z"/>
</svg>